<?xml version="1.0" standalone="no"?>
<!DOCTYPE svg PUBLIC "-//W3C//DTD SVG 20010904//EN"
 "http://www.w3.org/TR/2001/REC-SVG-20010904/DTD/svg10.dtd">
<svg version="1.0" xmlns="http://www.w3.org/2000/svg"
 width="900.000000pt" height="606.000000pt" viewBox="0 0 900.000000 606.000000"
 preserveAspectRatio="xMidYMid meet">
<metadata>
Created by potrace 1.10, written by Peter Selinger 2001-2011
</metadata>
<g transform="translate(0.000000,606.000000) scale(0.100000,-0.100000)"
fill="#ff9900" stroke="none">
<path d="M3226 4405 c-3 -9 -6 -265 -6 -570 0 -491 2 -554 16 -566 13 -10 17
-10 25 2 5 8 8 251 6 579 -2 512 -4 565 -18 568 -9 2 -19 -4 -23 -13z"/>
<path d="M3441 4412 c-6 -2 -11 -19 -11 -38 l0 -34 50 0 c33 0 50 -4 51 -12 0
-7 0 -233 -1 -503 l-1 -490 25 -30 24 -30 163 -3 c248 -5 354 14 465 84 162
102 244 268 244 493 -1 194 -77 357 -215 457 -111 81 -166 95 -375 100 -96 2
-227 5 -291 7 -64 2 -121 1 -128 -1z m564 -87 c236 -50 365 -222 365 -485 0
-248 -103 -400 -323 -474 -63 -21 -401 -34 -423 -15 -12 10 -14 88 -14 494 0
265 3 485 7 488 13 14 317 7 388 -8z"/>
<path d="M2171 4384 c-30 -38 -30 -148 -1 -164 36 -19 59 3 62 63 l3 52 171 3
c132 2 173 0 175 -10 2 -7 2 -240 -1 -518 -5 -533 -4 -550 39 -550 42 0 42 6
40 552 l-1 523 153 3 c201 4 197 5 201 -61 l3 -52 35 0 35 0 -1 74 c-1 119 32
111 -469 111 l-424 0 -20 -26z"/>
<path d="M4112 3030 c-112 -27 -191 -149 -175 -270 10 -78 50 -138 118 -180
51 -32 155 -35 198 -7 29 19 57 22 57 7 0 -16 27 -11 34 6 3 9 6 49 6 90 0 61
-4 78 -21 95 -11 11 -28 19 -37 17 -25 -5 -27 -37 -2 -60 29 -27 22 -55 -23
-91 -33 -27 -45 -31 -101 -31 -55 0 -70 4 -100 28 -48 36 -76 93 -77 159 -2
65 16 103 73 151 37 32 48 36 95 36 39 0 67 -7 98 -25 44 -24 45 -24 56 -4 7
15 7 24 -1 34 -30 36 -136 60 -198 45z"/>
<path d="M976 3014 c-22 -22 -29 -53 -16 -69 18 -22 37 -18 56 10 15 23 23 26
63 23 l46 -3 0 -197 c0 -211 4 -230 45 -208 20 11 22 17 16 68 -8 79 -9 318
-1 331 11 19 80 13 108 -9 35 -28 47 -25 47 10 0 51 -25 58 -198 58 -118 0
-155 -3 -166 -14z"/>
<path d="M1388 3022 c-22 -4 -23 -25 -3 -42 12 -10 15 -45 15 -200 0 -232 -8
-220 148 -220 103 0 112 2 126 22 21 30 20 55 -3 67 -15 9 -22 6 -35 -14 -15
-23 -23 -25 -89 -25 -43 0 -78 5 -85 12 -15 15 -16 130 -1 145 6 6 37 8 77 5
55 -3 70 -1 81 12 24 29 -2 41 -87 41 l-77 0 -5 59 c-7 81 5 96 79 96 46 0 62
-4 76 -20 24 -26 59 -22 63 6 2 14 -7 29 -24 43 -23 18 -38 21 -133 19 -58 -1
-114 -4 -123 -6z"/>
<path d="M2046 3009 c-14 -11 -26 -26 -26 -32 0 -12 -53 -161 -76 -214 -8 -17
-14 -36 -14 -43 0 -21 -32 -72 -39 -64 -4 5 -16 36 -26 69 -10 33 -22 67 -26
75 -4 8 -17 44 -29 80 -44 127 -51 140 -82 140 -35 0 -36 -15 -3 -71 14 -24
25 -50 25 -57 0 -8 6 -28 14 -45 8 -18 24 -59 37 -92 13 -33 26 -64 30 -70 4
-5 12 -28 18 -50 15 -59 35 -83 57 -69 20 12 25 21 49 84 9 25 23 59 31 75 7
17 23 59 35 95 12 36 35 91 50 124 16 32 29 62 29 66 0 18 -31 17 -54 -1z"/>
<path d="M2664 3013 c-15 -15 -16 -35 -12 -174 3 -87 2 -162 -2 -168 -4 -7
-41 37 -91 106 -46 65 -91 126 -101 137 -9 10 -29 38 -44 62 -19 30 -35 44
-50 44 -21 0 -21 -4 -28 -197 -6 -158 -11 -201 -23 -215 -34 -38 25 -68 62
-32 14 14 16 40 15 163 -2 177 -2 171 9 171 5 0 41 -46 80 -102 127 -183 175
-243 196 -243 19 0 20 8 23 195 2 177 4 196 22 215 24 26 25 41 4 49 -26 10
-42 7 -60 -11z"/>
<path d="M2962 3017 c-10 -11 -8 -19 8 -37 18 -21 20 -37 20 -206 0 -153 3
-185 16 -198 12 -12 37 -16 102 -16 146 0 224 52 253 167 26 107 -14 213 -104
271 -39 24 -52 27 -162 30 -97 3 -123 1 -133 -11z m262 -67 c65 -31 91 -78 90
-161 0 -58 -4 -72 -28 -104 -16 -20 -48 -45 -73 -56 -56 -24 -158 -26 -167 -4
-11 30 -5 329 7 343 16 20 115 10 171 -18z"/>
<path d="M3597 3023 c-12 -11 -8 -34 8 -49 12 -13 15 -50 15 -210 l0 -194 31
0 31 0 -3 102 c-4 93 -2 103 14 106 45 9 62 -6 105 -97 48 -102 63 -121 97
-121 38 0 39 18 3 58 -18 20 -51 72 -72 114 l-40 76 30 44 c16 24 31 45 34 48
8 7 42 61 56 87 14 25 9 33 -22 33 -18 0 -29 -11 -45 -42 -12 -24 -25 -45 -29
-48 -4 -3 -17 -24 -28 -47 -16 -31 -29 -43 -52 -48 -50 -11 -63 8 -56 77 8 70
-11 118 -48 118 -12 0 -26 -3 -29 -7z"/>
<path d="M4854 3015 c-3 -8 4 -26 15 -41 19 -25 21 -39 21 -193 0 -220 -3
-215 120 -219 112 -3 137 1 145 28 8 27 -3 60 -20 60 -8 0 -19 -9 -25 -20 -9
-17 -21 -20 -85 -20 -66 0 -74 2 -80 21 -4 11 -5 96 -3 189 3 154 1 170 -16
189 -22 24 -64 28 -72 6z"/>
<path d="M5193 3023 c-18 -7 -16 -20 7 -43 21 -21 21 -15 24 -276 1 -78 5
-116 15 -127 11 -14 33 -17 126 -17 123 0 145 9 145 63 0 34 -30 37 -58 7 -17
-18 -29 -21 -98 -18 l-79 3 0 80 0 80 75 -3 c79 -3 107 6 97 32 -5 12 -25 16
-89 18 l-83 3 -3 54 c-2 30 0 66 3 79 6 23 9 24 76 20 60 -3 73 -7 89 -27 11
-16 23 -22 34 -18 22 9 20 53 -4 77 -18 18 -33 20 -142 19 -68 0 -129 -3 -135
-6z"/>
<path d="M2166 3012 c-3 -5 -6 -78 -7 -162 -1 -139 1 -155 17 -167 33 -24 39
4 37 168 0 85 -2 157 -2 162 -1 10 -39 9 -45 -1z"/>
<path d="M3447 3013 c-4 -6 -2 -253 3 -326 0 -5 10 -7 23 -5 22 3 22 5 25 171
l2 167 -24 0 c-14 0 -27 -3 -29 -7z"/>
<path d="M4573 2969 c-54 -13 -130 -80 -154 -137 -54 -125 6 -278 133 -342 55
-27 83 -24 83 10 0 20 -7 26 -43 36 -63 19 -98 48 -126 109 -29 60 -31 84 -13
136 27 78 111 149 176 149 40 0 92 -31 89 -52 -3 -16 -12 -20 -63 -22 -56 -3
-61 -5 -97 -46 -46 -52 -51 -103 -16 -151 42 -56 75 -69 177 -69 74 0 93 3 98
16 3 9 -3 23 -16 35 -19 18 -21 30 -21 136 l0 115 -39 39 c-23 23 -48 39 -62
39 -13 0 -33 2 -44 4 -11 2 -39 0 -62 -5z m155 -241 l-3 -83 -51 -3 c-48 -3
-53 -1 -83 33 -36 41 -36 45 -16 85 20 39 41 49 103 50 l53 0 -3 -82z"/>
<path d="M2154 2595 c-9 -22 9 -37 37 -33 16 2 24 10 24 23 0 26 -52 35 -61
10z"/>
<path d="M3444 2595 c-9 -22 9 -37 37 -33 16 2 24 10 24 23 0 26 -52 35 -61
10z"/>
</g>
</svg>
